<?xml version="1.0" encoding="utf-8"?>
<!-- Generator: Adobe Illustrator 24.1.1, SVG Export Plug-In . SVG Version: 6.00 Build 0)  -->
<svg version="1.1" id="Capa_1" xmlns="http://www.w3.org/2000/svg" xmlns:xlink="http://www.w3.org/1999/xlink" x="0px" y="0px"
	 viewBox="0 0 25.5 28.9" style="enable-background:new 0 0 25.5 28.9;" xml:space="preserve">
<style type="text/css">
	.st0{fill:#FFFFFF;}
	.st1{fill:#6C6C6C;}
	.st2{display:none;}
	.st3{display:inline;}
</style>
<g>
	<path class="st0" d="M5.8,16.7l-2.3,11L8,25.4l3.4,2.6l1.3-8.2l1.5,8.2l3.4-2.6l4.4,2.4l-2.2-11.1c0,0,2.5-2.2,2.2-6.6
		c-0.3-4.4-3.2-8.5-9.3-8.5c-6-0.1-8,4.2-9.2,7.8S5.8,16.7,5.8,16.7z"/>
	<g id="certificaciones">
		<g>
			<path class="st1" d="M20.1,16.6c1.5-1.7,2.4-3.8,2.4-6.2c0-5.2-4.4-9.4-9.8-9.4C7.4,1,3,5.2,3,10.4c0,2.4,0.9,4.5,2.4,6.2L3,27.6
				c0,0.2,0,0.4,0.2,0.5s0.4,0.1,0.5,0l4.1-2.3l3.1,2.7c0.1,0.1,0.2,0.1,0.3,0.1s0.1,0,0.2,0c0.2-0.1,0.3-0.2,0.3-0.4l1-6.1l1,6.1
				c0,0.2,0.2,0.3,0.3,0.4c0.1,0,0.1,0,0.2,0c0.1,0,0.2,0,0.3-0.1l3.1-2.7l4.1,2.3c0.2,0.1,0.4,0.1,0.5,0c0.2-0.1,0.2-0.3,0.2-0.5
				L20.1,16.6z M10.9,27.2l-2.7-2.3c-0.1-0.1-0.2-0.1-0.3-0.1c-0.1,0-0.2,0-0.3,0.1l-3.4,1.9l2-9.3c1.6,1.4,3.6,2.2,5.9,2.4
				L10.9,27.2z M12.7,18.8C7.9,18.8,4,15,4,10.4S7.9,2,12.7,2s8.7,3.8,8.7,8.4S17.6,18.8,12.7,18.8z M17.9,24.8
				c-0.2-0.1-0.4-0.1-0.6,0.1l-2.7,2.3l-1.2-7.4c2.2-0.1,4.3-1,5.9-2.4l2,9.3L17.9,24.8z"/>
			<path class="st1" d="M19,8.5c-0.1-0.4-0.5-0.7-1-0.7h-3.3l-1-3.1l0,0c-0.1-0.4-0.5-0.7-1-0.7c-0.4,0-0.8,0.3-1,0.7l-1,3H7.4
				C7,7.7,6.6,8,6.4,8.4c-0.1,0.4,0,0.8,0.4,1.1l2.7,1.9l-1,3.1c-0.1,0.4,0,0.8,0.4,1.1s0.8,0.3,1.2,0l2.7-1.9l2.7,1.9
				c0.2,0.1,0.4,0.2,0.6,0.2c0.2,0,0.4-0.1,0.6-0.2c0.4-0.3,0.5-0.7,0.4-1.1l-1-3l2.7-1.9C19,9.3,19.1,8.9,19,8.5z M15.4,10.7
				c-0.4,0.2-0.5,0.7-0.4,1.1l1,3l-2.7-1.9c-0.2-0.1-0.4-0.2-0.6-0.2c-0.2,0-0.4,0.1-0.6,0.2l-2.7,1.9l1-3c0.1-0.4,0-0.8-0.4-1.1
				L7.4,8.8h3.3c0.4,0,0.8-0.3,1-0.7l1-3l1,3c0.1,0.4,0.5,0.7,1,0.7H18L15.4,10.7z"/>
		</g>
	</g>
</g>
<g id="trabajo" class="st2">
	<g class="st3">
		<path class="st1" d="M19.5,5.9c-0.2-0.2-0.5-0.3-0.7-0.1c-1.3,0.9-2.1,0.5-2.2,0.4c-0.2-0.1-0.4-0.1-0.6,0C14,7.4,12.3,6,12.2,6
			c-0.1-0.1-0.2-0.1-0.4-0.1c-0.1,0-0.3,0.1-0.3,0.2C9.8,8.2,6,6.6,5.9,6.6c-0.3-0.1-0.6,0-0.7,0.2s0,0.5,0.3,0.7
			c0,0,1.1,0.5,2.5,0.7c0.3,0,0.6,0,0.8,0c1.3,0,2.4-0.4,3.2-1.2c0.3,0.2,0.6,0.3,1.1,0.5c0.8,0.2,1.9,0.4,3.2-0.3
			c0.5,0.2,1.6,0.4,3-0.6C19.6,6.5,19.7,6.2,19.5,5.9z"/>
		<path class="st1" d="M25.2,26.7c-0.5-3.1-1.3-5-2.6-5.7c-0.4-0.2-0.8-0.4-1.2-0.6c-1.5-0.8-3-1.5-3.5-2.5c1.3-0.8,2.3-1.9,3.1-3.2
			c0.9-1.4,1.3-3.1,1.3-4.7c0-5.2-4.3-9.4-9.6-9.4S3.1,4.8,3.1,10c0,1.7,0.5,3.3,1.3,4.7C5.2,16,6.2,17,7.5,17.8
			c-0.5,0.9-2.1,1.7-3.6,2.5c-0.3,0.2-0.7,0.4-1,0.5c-1.2,0.7-2.1,2.6-2.6,5.7c0,0.3,0.1,0.5,0.4,0.6c0.3,0,0.5-0.1,0.6-0.4
			c0.4-2.7,1.1-4.5,2.1-5c0.3-0.2,0.7-0.4,1-0.5c1.7-0.9,3.3-1.7,4-2.9c0.6,0.4,1.1,0.8,1.2,1c0,1.5,0.3,2.5,1,3L9.5,25
			c0,0.2,0,0.3,0.1,0.5l2.7,2.6c0,0,0,0.1,0.1,0.1c0.1,0.1,0.2,0.1,0.4,0.1c0.1,0,0.3,0,0.4-0.1l2.7-2.7c0.1-0.1,0.2-0.3,0.1-0.5
			l-1.1-2.7c0.7-0.5,1-1.6,1-3c0.1-0.2,0.6-0.6,1.2-1c0.7,1.2,2.2,2,3.9,2.8c0.4,0.2,0.8,0.4,1.1,0.6c0.9,0.5,1.6,2.3,2.1,5
			c0,0.2,0.3,0.4,0.5,0.4h0.1C25,27.2,25.2,27,25.2,26.7z M14.9,25.2l-2.2,2.1l-2.2-2.1l1-2.4H14L14.9,25.2z M14.9,19.4L14.9,19.4
			c0,1.6-0.4,2.2-0.7,2.4h-2.9c-0.3-0.2-0.7-0.8-0.7-2.4l0,0c0-0.2-0.1-0.3-0.2-0.6c0.7,0.1,1.5,0.2,2.4,0.2s1.7-0.1,2.4-0.2
			C14.9,19.1,14.9,19.3,14.9,19.4z M17.1,17.3c0,0-0.1,0-0.1,0.1l0,0c-0.1,0-0.2,0-0.3,0c0,0-1.8,0.7-3.9,0.7
			c-2.3,0-3.9-0.7-3.9-0.7c-0.1,0-0.2,0-0.3,0l0,0c-0.1,0-0.1-0.1-0.2-0.1c-2.6-1.5-4.2-4.3-4.2-7.2c0-4.6,3.8-8.4,8.6-8.4
			c4.7,0,8.6,3.8,8.6,8.4C21.3,13,19.7,15.8,17.1,17.3z"/>
	</g>
</g>
</svg>
