<?xml version="1.0" encoding="utf-8"?>
<!-- Generator: Adobe Illustrator 24.1.1, SVG Export Plug-In . SVG Version: 6.00 Build 0)  -->
<svg version="1.1" id="Capa_1" xmlns="http://www.w3.org/2000/svg" xmlns:xlink="http://www.w3.org/1999/xlink" x="0px" y="0px"
	 viewBox="0 0 25.1 27.8" style="enable-background:new 0 0 25.1 27.8;" xml:space="preserve">
<style type="text/css">
	.st0{display:none;}
	.st1{display:inline;}
	.st2{fill:#6C6C6C;}
	.st3{fill:#FFFFFF;}
</style>
<g id="certificaciones" class="st0">
	<g class="st1">
		<path class="st2" d="M19.6,16c1.5-1.7,2.4-3.8,2.4-6.2c0-5.2-4.4-9.4-9.8-9.4S2.4,4.6,2.4,9.8c0,2.4,0.9,4.5,2.4,6.2L2.4,27
			c0,0.2,0,0.4,0.2,0.5s0.4,0.1,0.5,0l4.1-2.3l3.1,2.7c0.1,0.1,0.2,0.1,0.3,0.1s0.1,0,0.2,0c0.2-0.1,0.3-0.2,0.3-0.4l1-6.1l1,6.1
			c0,0.2,0.2,0.3,0.3,0.4c0.1,0,0.1,0,0.2,0c0.1,0,0.2,0,0.3-0.1l3.1-2.7l4.1,2.3c0.2,0.1,0.4,0.1,0.5,0c0.2-0.1,0.2-0.3,0.2-0.5
			L19.6,16z M10.4,26.6l-2.7-2.3c-0.1-0.1-0.2-0.1-0.3-0.1c-0.1,0-0.2,0-0.3,0.1l-3.4,1.9l2-9.3c1.6,1.4,3.6,2.2,5.9,2.4L10.4,26.6z
			 M12.3,18.2c-4.8,0-8.7-3.8-8.7-8.4s3.8-8.4,8.7-8.4S21,5.2,21,9.8S17.1,18.2,12.3,18.2z M17.4,24.2c-0.2-0.1-0.4-0.1-0.6,0.1
			l-2.7,2.3l-1.2-7.4c2.2-0.1,4.3-1,5.9-2.4l2,9.3L17.4,24.2z"/>
		<path class="st2" d="M18.5,7.9c-0.1-0.4-0.5-0.7-1-0.7h-3.3l-1-3.1l0,0c-0.1-0.4-0.5-0.7-1-0.7c-0.4,0-0.8,0.3-1,0.7l-1,3H7
			c-0.4,0-0.8,0.3-1,0.7C5.9,8.2,6,8.6,6.4,8.9l2.7,1.9l-1,3.1c-0.1,0.4,0,0.8,0.4,1.1s0.8,0.3,1.2,0l2.7-1.9l2.7,1.9
			c0.2,0.1,0.4,0.2,0.6,0.2s0.4-0.1,0.6-0.2c0.4-0.3,0.5-0.7,0.4-1.1l-1-3L18.4,9C18.5,8.7,18.7,8.3,18.5,7.9z M14.9,10.1
			c-0.4,0.2-0.5,0.7-0.4,1.1l1,3l-2.7-1.9c-0.2-0.1-0.4-0.2-0.6-0.2c-0.2,0-0.4,0.1-0.6,0.2l-2.7,1.9l1-3c0.1-0.4,0-0.8-0.4-1.1
			L7,8.2h3.3c0.4,0,0.8-0.3,1-0.7l1-3l1,3c0.1,0.4,0.5,0.7,1,0.7h3.3L14.9,10.1z"/>
	</g>
</g>
<g id="Capa_2_1_" class="st0">
</g>
<g>
	<path class="st3" d="M0.5,27v-5.2c0,0,2.5-2.2,2.6-2.3C3.2,19.5,8,17.8,8,17.8l-3-3.4c0,0-3.9-8.5,2.6-12.3s12.2,0.4,13.3,4.2
		s0.6,7.1-3.6,11.3c0,0,6.5,1.3,7,3.9s0,5.9,0,5.9s-5.9-4-9-1.7s-2.8,1.7-2.8,1.7l-2.7-1.7C9.7,25.7,6.7,23.1,0.5,27z"/>
	<g>
		<g>
			<g>
				<path class="st2" d="M6.1,16.4c0.4,0.3,0.7,0.7,0.9,1c0.5,0,0.9,0,1.4,0c-0.4-0.6-0.9-1.2-1.6-1.9H6.7c-1.6-1.6-2.5-3.7-2.5-6
					c0-4.7,3.8-8.4,8.4-8.4s8.3,3.7,8.1,8.3c0,2.4-1,4.6-2.7,6.2c-0.6,0.6-1.1,1.1-1.5,1.7c0.5,0,1,0,1.6,0c0.2-0.3,0.5-0.6,0.8-0.9
					c2-1.8,3.1-4.4,3.1-7C22,4.2,17.7,0,12.5,0S3.1,4.2,3.1,9.4c0,2.6,1,5,2.9,6.9C6,16.3,6,16.4,6.1,16.4z"/>
			</g>
		</g>
		<g>
			<path class="st2" d="M9.1,8.2C7.4,8.2,6.1,8.1,6,8C5.7,8,5.5,7.7,5.6,7.4c0-0.3,0.3-0.5,0.6-0.5c0.1,0,5.7,0.8,8.1-0.9l-1.7-3.6
				c-0.1-0.3,0-0.6,0.3-0.7c0.3-0.1,0.6,0,0.7,0.3l1.9,4c0.1,0.2,0.1,0.5-0.1,0.6C13.9,7.9,11.2,8.2,9.1,8.2z"/>
		</g>
		<g>
			<path class="st2" d="M19.4,8.2c-0.1,0-3.1,0-4.8-1.7c-0.2-0.2-0.2-0.6,0-0.8c0.2-0.2,0.6-0.2,0.8,0c1.3,1.3,4,1.3,4,1.3
				c0.3,0,0.5,0.2,0.5,0.6C20,8,19.7,8.2,19.4,8.2z"/>
		</g>
		<g>
			<path class="st2" d="M12.5,19.7c-0.1,0-0.1,0-0.2,0l-5.1-1.8c-0.3-0.1-0.4-0.4-0.3-0.7c0.1-0.3,0.4-0.4,0.7-0.3l4.9,1.7l4.3-1.4
				c0.1-0.3,0.4-0.8,0.7-1.2c0.2-0.2,0.5-0.3,0.8-0.1c0.2,0.2,0.3,0.5,0.1,0.8c-0.3,0.4-0.5,0.9-0.6,1.1c-0.1,0.2-0.2,0.3-0.3,0.3
				l-4.7,1.5C12.6,19.7,12.6,19.7,12.5,19.7z"/>
		</g>
		<g>
			<path class="st2" d="M12.4,21.9c-0.7,0-1.3-0.2-1.7-0.7C10,20.3,10,19,10.1,18.9c0-0.3,0.3-0.5,0.6-0.5c0.3,0,0.5,0.3,0.5,0.6
				c0,0.3,0,1.1,0.4,1.5c0.4,0.4,1.3,0.4,1.7,0c0.4-0.4,0.4-1.2,0.4-1.5c0-0.3,0.2-0.6,0.5-0.6c0.3,0,0.6,0.2,0.6,0.5
				c0,0.1,0.1,1.5-0.7,2.3C13.7,21.6,13.1,21.9,12.4,21.9z"/>
		</g>
		<g>
			<path class="st2" d="M12.4,28c-0.1,0-0.2,0-0.3-0.1l-3.2-2c-0.2-0.1-0.3-0.4-0.2-0.7l1.6-4.3c0.1-0.3,0.4-0.4,0.7-0.3
				c0.3,0.1,0.4,0.4,0.3,0.7l-1.4,3.9l2.8,1.8c0.3,0.2,0.3,0.5,0.2,0.8C12.8,28,12.6,28,12.4,28z"/>
		</g>
		<g>
			<path class="st2" d="M12.4,28c-0.2,0-0.4-0.1-0.5-0.3c-0.2-0.3-0.1-0.6,0.2-0.8l2.8-1.8l-1.4-3.9c-0.1-0.3,0-0.6,0.3-0.7
				c0.3-0.1,0.6,0,0.7,0.3l1.6,4.3c0.1,0.2,0,0.5-0.2,0.7l-3.2,2C12.6,28,12.5,28,12.4,28z"/>
		</g>
		<g>
			<path class="st2" d="M24.5,27.7c-0.3,0-0.5-0.2-0.5-0.5v-4.8c0-1.7-4.2-3.5-6.9-4.2c-0.3-0.1-0.5-0.4-0.4-0.7
				c0.1-0.3,0.4-0.5,0.7-0.4c0.8,0.2,7.7,2.1,7.7,5.2v4.8C25,27.5,24.8,27.7,24.5,27.7z"/>
		</g>
		<g>
			<path class="st2" d="M0.6,27.7c-0.3,0-0.5-0.2-0.5-0.5v-4.8c0-3.1,6.9-5,7.7-5.2c0.3-0.1,0.6,0.1,0.7,0.4S8.3,18.2,8,18.2
				c-2.7,0.7-6.9,2.4-6.9,4.2v4.8C1.1,27.5,0.9,27.7,0.6,27.7z"/>
		</g>
	</g>
</g>
</svg>
