<?xml version="1.0" encoding="utf-8"?>
<!-- Generator: Adobe Illustrator 24.1.1, SVG Export Plug-In . SVG Version: 6.00 Build 0)  -->
<svg version="1.1" id="Capa_1" xmlns="http://www.w3.org/2000/svg" xmlns:xlink="http://www.w3.org/1999/xlink" x="0px" y="0px"
	 viewBox="0 0 18.9 27.8" style="enable-background:new 0 0 18.9 27.8;" xml:space="preserve">
<style type="text/css">
	.st0{fill:#FFFFFF;}
	.st1{display:none;}
	.st2{display:inline;}
	.st3{fill:#6C6C6C;}
</style>
<path class="st0" d="M5.9,22.8c0,0-0.2-4.7-1.3-5.8s-3.9-3.9-4.2-6.5S2.4,0.4,9.4,0.4s8.8,5.9,8.8,10.1s-4.3,7.1-4.3,7.1l-0.7,2.4
	l-0.3,6l-3.3,1.3c0,0-3.7-1-3.6-1.3S5.9,22.8,5.9,22.8z"/>
<g id="Capa_1_1_">
	<g id="certificaciones" class="st1">
		<g class="st2">
			<path class="st3" d="M16.5,16c1.5-1.7,2.4-3.8,2.4-6.2c0-5.2-4.4-9.4-9.8-9.4s-9.8,4.2-9.8,9.4c0,2.4,0.9,4.5,2.4,6.2l-2.4,11
				c0,0.2,0,0.4,0.2,0.5s0.4,0.1,0.5,0l4.1-2.3l3.1,2.7C7.3,28,7.4,28,7.5,28s0.1,0,0.2,0C7.9,27.9,8,27.8,8,27.6l1-6.1l1,6.1
				c0,0.2,0.2,0.3,0.3,0.4c0.1,0,0.1,0,0.2,0c0.1,0,0.2,0,0.3-0.1l3.1-2.7l4.1,2.3c0.2,0.1,0.4,0.1,0.5,0c0.2-0.1,0.2-0.3,0.2-0.5
				L16.5,16z M7.3,26.6l-2.7-2.3c-0.1-0.1-0.2-0.1-0.3-0.1c-0.1,0-0.2,0-0.3,0.1l-3.4,1.9l2-9.3c1.6,1.4,3.6,2.2,5.9,2.4L7.3,26.6z
				 M9.2,18.2c-4.8,0-8.7-3.8-8.7-8.4s3.8-8.4,8.7-8.4s8.7,3.8,8.7,8.4S14,18.2,9.2,18.2z M14.3,24.2c-0.2-0.1-0.4-0.1-0.6,0.1
				L11,26.6l-1.2-7.4c2.2-0.1,4.3-1,5.9-2.4l2,9.3L14.3,24.2z"/>
			<path class="st3" d="M15.4,7.9c-0.1-0.4-0.5-0.7-1-0.7h-3.3l-1-3.1l0,0c-0.1-0.4-0.5-0.7-1-0.7c-0.4,0-0.8,0.3-1,0.7l-1,3H3.9
				c-0.4,0-0.8,0.3-1,0.7c-0.1,0.4,0,0.8,0.4,1.1L6,10.8l-1,3.1c-0.1,0.4,0,0.8,0.4,1.1s0.8,0.3,1.2,0l2.7-1.9L12,15
				c0.2,0.1,0.4,0.2,0.6,0.2s0.4-0.1,0.6-0.2c0.4-0.3,0.5-0.7,0.4-1.1l-1-3L15.3,9C15.4,8.7,15.6,8.3,15.4,7.9z M11.8,10.1
				c-0.4,0.2-0.5,0.7-0.4,1.1l1,3l-2.7-1.9c-0.2-0.1-0.4-0.2-0.6-0.2c-0.2,0-0.4,0.1-0.6,0.2l-2.7,1.9l1-3c0.1-0.4,0-0.8-0.4-1.1
				L3.9,8.2h3.3c0.4,0,0.8-0.3,1-0.7l1-3l1,3c0.1,0.4,0.5,0.7,1,0.7h3.3L11.8,10.1z"/>
		</g>
	</g>
	<g>
		<path class="st3" d="M6.6,21.9c-0.2,0-0.4,0-0.7-0.2c-0.2-0.1-0.4-0.4-0.5-0.8v-0.2c-0.1-0.8-0.3-2.4-2.4-4.3
			c-0.1,0-0.1-0.1-0.1-0.1C1,14.4,0,12,0,9.4C0,4.2,4.2,0,9.4,0s9.5,4.2,9.5,9.4c0,2.6-1.1,5.2-3.1,7c-2,1.9-2.3,3.5-2.4,4.3v0.2
			c-0.1,0.5-0.3,0.7-0.5,0.8c-0.3,0.2-0.6,0.2-0.8,0.2L6.6,21.9C6.7,21.9,6.6,21.9,6.6,21.9z M9.5,1.1c-4.6,0-8.4,3.7-8.4,8.4
			c0,2.3,0.9,4.4,2.5,6h0.1c2.4,2.2,2.7,4.2,2.8,5v0.2c0,0.1,0,0.1,0,0.1h0.1h5.6c0,0,0,0,0-0.1v-0.2c0.1-0.8,0.4-2.8,2.7-4.9
			c1.7-1.6,2.7-3.8,2.7-6.2C17.8,4.8,14.1,1.1,9.5,1.1z"/>
	</g>
	<g>
		<path class="st3" d="M9.4,27.7c-0.2,0-0.4,0-0.6-0.1l-2.3-0.7c-0.8-0.2-1.3-0.8-1.3-1.5v-4.6h8.4v4.6c0,0.7-0.5,1.3-1.3,1.6
			L10,27.7C9.8,27.7,9.6,27.7,9.4,27.7z M6.5,21.9v3.5c0,0.2,0.2,0.4,0.4,0.5l2.3,0.7c0.1,0,0.3,0,0.4,0l2.3-0.7
			c0.3-0.1,0.4-0.3,0.4-0.5v-3.5H6.5z"/>
	</g>
	<g>
		<polygon class="st3" points="6.1,25.1 5.9,24 12.6,23.2 12.8,24.3 		"/>
	</g>
	<g>
		<path class="st3" d="M7.9,19L7.9,19c-0.7-0.1-0.7-0.1-0.1-6.6h-3c-0.2,0-0.4-0.1-0.5-0.3C4.1,11.8,4,11.7,8.1,3.4
			c0.1-0.2,0.3-0.3,0.5-0.3h5.6c0.2,0,0.4,0.1,0.5,0.3s0.1,0.4,0,0.6l-3.3,5.1H13c0.2,0,0.4,0.1,0.5,0.3s0.1,0.4,0,0.5
			C8.7,18.4,8.3,19,7.9,19z M5.7,11.3h2.8c0.2,0,0.3,0.1,0.4,0.2C9,11.6,9.1,11.8,9,11.9c-0.1,1.2-0.3,2.9-0.4,4.3
			c0.9-1.6,2.3-4,3.4-6h-1.7c-0.2,0-0.4-0.1-0.5-0.3s-0.1-0.4,0-0.6l3.3-5.1H8.9C7.9,6.6,6.3,9.9,5.7,11.3z"/>
	</g>
</g>
<g id="Capa_2_1_" class="st1">
</g>
</svg>
