<?xml version="1.0" encoding="utf-8"?>
<!-- Generator: Adobe Illustrator 24.1.1, SVG Export Plug-In . SVG Version: 6.00 Build 0)  -->
<svg version="1.1" id="Capa_1" xmlns="http://www.w3.org/2000/svg" xmlns:xlink="http://www.w3.org/1999/xlink" x="0px" y="0px"
	 viewBox="0 0 51.1 24.2" style="enable-background:new 0 0 51.1 24.2;" xml:space="preserve">
<style type="text/css">
	.st0{fill:#58E4E4;}
	.st1{enable-background:new    ;}
	.st2{fill:#FFFFFF;stroke:#FFFFFF;stroke-width:0.5;stroke-miterlimit:10;}
</style>
<path id="Trazado_11" class="st0" d="M0,0h51.1v17H9.2L0,24.2L0,0L0,0z"/>
<g class="st1">
	<path class="st2" d="M16.6,12.3h-0.7V9.4h-3.3v2.9h-0.7V6h0.7v2.8h3.3V6h0.7V12.3z"/>
	<path class="st2" d="M21.3,12.4c-0.9,0-1.6-0.3-2.1-0.9c-0.5-0.6-0.8-1.4-0.8-2.3c0-1,0.3-1.8,0.8-2.4s1.3-0.9,2.2-0.9
		c0.9,0,1.6,0.3,2.1,0.9C24,7.3,24.3,8.1,24.3,9c0,1-0.3,1.8-0.8,2.4S22.2,12.4,21.3,12.4z M21.3,6.5c-0.7,0-1.2,0.2-1.6,0.7
		c-0.4,0.5-0.6,1.1-0.6,1.9c0,0.8,0.2,1.4,0.6,1.9c0.4,0.5,0.9,0.7,1.6,0.7c0.7,0,1.2-0.2,1.6-0.7s0.6-1.1,0.6-1.9
		c0-0.8-0.2-1.5-0.6-1.9C22.6,6.8,22,6.5,21.3,6.5z"/>
	<path class="st2" d="M29.4,12.3h-3.3V6h0.7v5.6h2.5V12.3z"/>
	<path class="st2" d="M36,12.3h-0.8l-0.7-1.8h-2.7l-0.6,1.8h-0.8L32.8,6h0.8L36,12.3z M34.3,9.8l-1-2.7c0-0.1-0.1-0.2-0.1-0.4h0
		c0,0.2-0.1,0.3-0.1,0.4l-1,2.7H34.3z"/>
	<path class="st2" d="M37.9,12.3c-0.1,0-0.3,0-0.3-0.1c-0.1-0.1-0.1-0.2-0.1-0.3s0-0.3,0.1-0.3c0.1-0.1,0.2-0.1,0.3-0.1
		c0.1,0,0.2,0,0.3,0.1c0.1,0.1,0.1,0.2,0.1,0.3s0,0.2-0.1,0.3S38.1,12.3,37.9,12.3z M38.3,6l-0.1,4.5h-0.6L37.5,6H38.3z"/>
</g>
</svg>
